<svg width="14.000000" height="16.000000" viewBox="0 0 14 16" fill="none" xmlns="http://www.w3.org/2000/svg" xmlns:xlink="http://www.w3.org/1999/xlink">
	<desc>
			Created with Pixso.
	</desc>
	<defs/>
	<g opacity="0.400000">
		<path id="Vector" d="M14 11.25L14 0.75C14 0.33 13.66 0 13.25 0L3 0C1.34 0 0 1.34 0 3L0 13C0 14.65 1.34 16 3 16L13.25 16C13.66 16 14 15.66 14 15.25L14 14.75C14 14.51 13.89 14.3 13.72 14.16C13.59 13.68 13.59 12.31 13.72 11.83C13.89 11.69 14 11.48 14 11.25ZM4 4.18C4 4.08 4.08 4 4.18 4L10.81 4C10.91 4 11 4.08 11 4.18L11 4.81C11 4.91 10.91 5 10.81 5L4.18 5C4.08 5 4 4.91 4 4.81L4 4.18ZM4 6.18C4 6.08 4.08 6 4.18 6L10.81 6C10.91 6 11 6.08 11 6.18L11 6.81C11 6.91 10.91 7 10.81 7L4.18 7C4.08 7 4 6.91 4 6.81L4 6.18ZM11.91 14L3 14C2.44 14 2 13.55 2 13C2 12.45 2.45 12 3 12L11.91 12C11.85 12.53 11.85 13.46 11.91 14Z" fill="#9FA2B4" fill-opacity="1.000000" fill-rule="nonzero"/>
	</g>
</svg>
