<svg width="16.000000" height="11.000000" viewBox="0 0 16 11" fill="none" xmlns="http://www.w3.org/2000/svg" xmlns:xlink="http://www.w3.org/1999/xlink">
	<desc>
			Created with Pixso.
	</desc>
	<defs/>
	<g opacity="0.400000">
		<path id="Vector" d="M2.4 4.2C3.28 4.2 4 3.48 4 2.59C4 1.71 3.28 1 2.4 1C1.51 1 0.79 1.71 0.79 2.59C0.79 3.48 1.51 4.2 2.4 4.2ZM13.6 4.2C14.48 4.2 15.2 3.48 15.2 2.59C15.2 1.71 14.48 1 13.6 1C12.71 1 12 1.71 12 2.59C12 3.48 12.71 4.2 13.6 4.2ZM14.4 5L12.8 5C12.36 5 11.96 5.17 11.67 5.46C12.68 6.01 13.39 7.01 13.55 8.2L15.2 8.2C15.64 8.2 16 7.84 16 7.4L16 6.59C16 5.71 15.28 5 14.4 5ZM8 5C9.54 5 10.8 3.74 10.8 2.2C10.8 0.65 9.54 -0.6 8 -0.6C6.45 -0.6 5.2 0.65 5.2 2.2C5.2 3.74 6.45 5 8 5ZM9.91 5.8L9.71 5.8C9.19 6.05 8.61 6.2 8 6.2C7.38 6.2 6.81 6.05 6.28 5.8L6.08 5.8C4.48 5.8 3.2 7.08 3.2 8.68L3.2 9.4C3.2 10.06 3.73 10.6 4.4 10.6L11.6 10.6C12.26 10.6 12.8 10.06 12.8 9.4L12.8 8.68C12.8 7.08 11.51 5.8 9.91 5.8ZM4.32 5.46C4.03 5.17 3.64 5 3.2 5L1.59 5C0.71 5 0 5.71 0 6.59L0 7.4C0 7.84 0.35 8.2 0.79 8.2L2.44 8.2C2.6 7.01 3.32 6.01 4.32 5.46Z" fill="#9FA2B4" fill-opacity="1.000000" fill-rule="nonzero"/>
	</g>
</svg>
