<svg width="11.000000" height="17.000000" viewBox="0 0 11 17" fill="none" xmlns="http://www.w3.org/2000/svg" xmlns:xlink="http://www.w3.org/1999/xlink">
	<desc>
			Created with Pixso.
	</desc>
	<defs/>
	<g opacity="0.400000">
		<path id="Vector" d="M2.5 14.19C2.5 14.39 2.56 14.58 2.66 14.75L3.2 15.55C3.29 15.69 3.41 15.8 3.56 15.88C3.7 15.95 3.87 16 4.03 16L5.96 16C6.12 16 6.29 15.95 6.43 15.88C6.58 15.8 6.7 15.69 6.79 15.55L7.33 14.75C7.43 14.58 7.49 14.39 7.49 14.19L7.49 13L2.5 13L2.5 14.19ZM-0.5 5.5C-0.5 6.88 0.01 8.15 0.86 9.11C1.37 9.7 2.18 10.93 2.49 11.97C2.49 11.98 2.49 11.99 2.49 12L7.5 12C7.5 11.99 7.5 11.98 7.5 11.97C7.81 10.93 8.62 9.7 9.13 9.11C9.98 8.15 10.5 6.88 10.5 5.5C10.5 2.45 8.02 -0.01 4.98 0C1.79 0 -0.5 2.59 -0.5 5.5ZM5 3C3.62 3 2.5 4.12 2.5 5.5C2.5 5.77 2.27 6 2 6C1.72 6 1.5 5.77 1.5 5.5C1.5 3.57 3.07 2 5 2C5.27 2 5.5 2.22 5.5 2.5C5.5 2.77 5.27 3 5 3Z" fill="#9FA2B4" fill-opacity="1.000000" fill-rule="nonzero"/>
	</g>
</svg>
