<svg width="15.000000" height="16.000000" viewBox="0 0 15 16" fill="none" xmlns="http://www.w3.org/2000/svg" xmlns:xlink="http://www.w3.org/1999/xlink">
	<desc>
			Created with Pixso.
	</desc>
	<defs/>
	<path id="Vector" d="M7 16C8.1 16 8.99 15.1 8.99 14L5 14C5 15.1 5.89 16 7 16ZM13.73 11.32C13.12 10.67 11.99 9.69 11.99 6.5C11.99 4.07 10.29 2.12 7.99 1.65L7.99 1C7.99 0.44 7.55 0 7 0C6.44 0 6 0.44 6 1L6 1.65C3.7 2.12 2 4.07 2 6.5C2 9.69 0.87 10.67 0.26 11.32C0.08 11.52 -0.01 11.76 3.05e-5 12C0 12.51 0.4 13 1 13L12.99 13C13.59 13 13.99 12.51 14 12C14 11.76 13.91 11.52 13.73 11.32Z" fill="#C5C7CD" fill-opacity="1.000000" fill-rule="nonzero"/>
</svg>
