<svg width="16.000000" height="15.000000" viewBox="0 0 16 15" fill="none" xmlns="http://www.w3.org/2000/svg" xmlns:xlink="http://www.w3.org/1999/xlink">
	<desc>
			Created with Pixso.
	</desc>
	<defs/>
	<g opacity="0.400000">
		<path id="Vector" d="M15.52 7.94L8.54 7.94L13.19 12.58C13.36 12.76 13.66 12.78 13.84 12.6C14.98 11.53 15.76 10.09 15.99 8.46C16.03 8.18 15.8 7.94 15.52 7.94ZM15.05 6.03C14.81 2.52 12 -0.29 8.49 -0.53C8.22 -0.55 8 -0.33 8 -0.06L8 6.52L14.58 6.52C14.85 6.52 15.07 6.3 15.05 6.03ZM6.58 7.94L6.58 0.96C6.58 0.68 6.34 0.45 6.06 0.48C2.55 0.98 -0.13 4.04 0 7.71C0.13 11.48 3.37 14.57 7.14 14.52C8.63 14.51 10 14.03 11.12 13.23C11.35 13.06 11.37 12.72 11.17 12.52L6.58 7.94Z" fill="#9FA2B4" fill-opacity="1.000000" fill-rule="nonzero"/>
	</g>
</svg>
