<svg width="4.000000" height="16.000000" viewBox="0 0 4 16" fill="none" xmlns="http://www.w3.org/2000/svg" xmlns:xlink="http://www.w3.org/1999/xlink">
	<desc>
			Created with Pixso.
	</desc>
	<defs/>
	<path id="Vector" d="M2 4C3.09 4 4 3.09 4 2C4 0.9 3.09 0 2 0C0.9 0 0 0.9 0 2C0 3.09 0.9 4 2 4ZM2 6C0.9 6 0 6.9 0 8C0 9.09 0.9 10 2 10C3.09 10 4 9.09 4 8C4 6.9 3.09 6 2 6ZM2 12C0.9 12 0 12.9 0 14C0 15.1 0.9 16 2 16C3.09 16 4 15.1 4 14C4 12.9 3.09 12 2 12Z" fill="#C5C7CD" fill-opacity="1.000000" fill-rule="nonzero"/>
</svg>
