<svg width="15.000000" height="15.000000" viewBox="0 0 15 15" fill="none" xmlns="http://www.w3.org/2000/svg" xmlns:xlink="http://www.w3.org/1999/xlink">
	<desc>
			Created with Pixso.
	</desc>
	<defs/>
	<g opacity="0.400000">
		<path id="Vector" d="M14.23 8.86L12.9 8.09C13.03 7.37 13.03 6.62 12.9 5.9L14.23 5.13C14.38 5.04 14.45 4.86 14.4 4.69C14.05 3.58 13.46 2.57 12.69 1.74C12.57 1.61 12.38 1.58 12.23 1.66L10.9 2.43C10.34 1.95 9.69 1.58 9 1.34L9 -0.2C9 -0.37 8.87 -0.53 8.7 -0.56C7.55 -0.82 6.38 -0.81 5.29 -0.56C5.12 -0.53 5 -0.37 5 -0.2L5 1.34C4.3 1.59 3.66 1.96 3.1 2.44L1.77 1.67C1.61 1.58 1.42 1.61 1.3 1.74C0.53 2.57 -0.06 3.58 -0.4 4.69C-0.46 4.86 -0.39 5.04 -0.23 5.13L1.1 5.9C0.96 6.63 0.96 7.37 1.1 8.09L-0.23 8.86C-0.39 8.95 -0.45 9.13 -0.4 9.3C-0.06 10.41 0.53 11.42 1.3 12.26C1.42 12.39 1.62 12.42 1.77 12.33L3.1 11.56C3.66 12.04 4.3 12.41 5 12.66L5 14.2C5 14.37 5.12 14.52 5.29 14.56C6.44 14.82 7.61 14.8 8.7 14.56C8.88 14.52 9 14.37 9 14.2L9 12.66C9.69 12.41 10.34 12.04 10.9 11.56L12.23 12.33C12.38 12.42 12.57 12.39 12.69 12.26C13.46 11.42 14.05 10.42 14.4 9.3C14.45 9.13 14.38 8.95 14.23 8.86ZM7 9.5C5.62 9.5 4.5 8.37 4.5 7C4.5 5.62 5.62 4.5 7 4.5C8.37 4.5 9.5 5.62 9.5 7C9.5 8.37 8.37 9.5 7 9.5Z" fill="#9FA2B4" fill-opacity="1.000000" fill-rule="nonzero"/>
	</g>
</svg>
