<svg width="14.000000" height="12.000000" viewBox="0 0 14 12" fill="none" xmlns="http://www.w3.org/2000/svg" xmlns:xlink="http://www.w3.org/1999/xlink">
	<desc>
			Created with Pixso.
	</desc>
	<defs/>
	<path id="Vector" d="M0.12 2.26L2.31 0.12C2.48 -0.05 2.76 -0.05 2.93 0.12L5.12 2.26C5.39 2.53 5.2 3 4.81 3L3.5 3L3.5 11.57C3.5 11.8 3.3 12 3.06 12L2.18 12C1.94 12 1.75 11.8 1.75 11.57L1.75 3L0.43 3C0.04 3 -0.15 2.53 0.12 2.26ZM6.56 1.71L13.56 1.71C13.8 1.71 14 1.52 14 1.28L14 0.42C14 0.19 13.8 0 13.56 0L6.56 0C6.32 0 6.12 0.19 6.12 0.42L6.12 1.28C6.12 1.52 6.32 1.71 6.56 1.71ZM6.12 4.71L6.12 3.85C6.12 3.62 6.32 3.42 6.56 3.42L11.81 3.42C12.05 3.42 12.25 3.62 12.25 3.85L12.25 4.71C12.25 4.95 12.05 5.14 11.81 5.14L6.56 5.14C6.32 5.14 6.12 4.95 6.12 4.71ZM6.12 11.57L6.12 10.71C6.12 10.47 6.32 10.28 6.56 10.28L8.31 10.28C8.55 10.28 8.75 10.47 8.75 10.71L8.75 11.57C8.75 11.8 8.55 12 8.31 12L6.56 12C6.32 12 6.12 11.8 6.12 11.57ZM6.12 8.14L6.12 7.28C6.12 7.04 6.32 6.85 6.56 6.85L10.06 6.85C10.3 6.85 10.5 7.04 10.5 7.28L10.5 8.14C10.5 8.37 10.3 8.57 10.06 8.57L6.56 8.57C6.32 8.57 6.12 8.37 6.12 8.14Z" fill="#C5C7CD" fill-opacity="1.000000" fill-rule="nonzero"/>
</svg>
