<svg width="13.000000" height="17.000000" viewBox="0 0 13 17" fill="none" xmlns="http://www.w3.org/2000/svg" xmlns:xlink="http://www.w3.org/1999/xlink">
	<desc>
			Created with Pixso.
	</desc>
	<defs/>
	<g opacity="0.400000">
		<path id="Vector" d="M3.03 11.33C2.76 11.06 2.9 11.13 2.25 10.96C1.95 10.88 1.69 10.72 1.45 10.54L0.03 14.02C-0.1 14.35 0.15 14.72 0.51 14.71L2.16 14.64L3.29 15.84C3.54 16.1 3.98 16.02 4.12 15.68L5.75 11.7C5.41 11.88 5.03 12 4.64 12C4.03 12 3.46 11.76 3.03 11.33ZM11.96 14.02L10.54 10.54C10.3 10.72 10.04 10.88 9.75 10.96C9.09 11.13 9.23 11.06 8.96 11.33C8.53 11.76 7.96 12 7.35 12C6.96 12 6.58 11.88 6.24 11.7L7.87 15.68C8.01 16.02 8.45 16.1 8.7 15.84L9.83 14.64L11.48 14.71C11.84 14.72 12.09 14.35 11.96 14.02ZM8.21 10.62C8.69 10.13 8.75 10.18 9.43 9.99C9.86 9.87 10.2 9.53 10.32 9.08C10.55 8.2 10.49 8.3 11.13 7.66C11.44 7.33 11.57 6.86 11.45 6.42C11.22 5.53 11.22 5.66 11.45 4.77C11.57 4.33 11.44 3.85 11.13 3.53C10.49 2.88 10.55 2.99 10.32 2.1C10.2 1.66 9.86 1.31 9.43 1.2C8.55 0.96 8.66 1.02 8.02 0.37C7.7 0.05 7.24 -0.08 6.81 0.04C5.94 0.28 6.06 0.28 5.18 0.04C4.75 -0.08 4.29 0.05 3.97 0.37C3.33 1.02 3.44 0.96 2.56 1.2C2.13 1.31 1.79 1.66 1.67 2.1C1.44 2.99 1.5 2.88 0.86 3.53C0.55 3.85 0.42 4.33 0.54 4.77C0.77 5.65 0.77 5.53 0.54 6.42C0.42 6.86 0.55 7.33 0.86 7.66C1.5 8.3 1.44 8.2 1.67 9.08C1.79 9.53 2.13 9.87 2.56 9.99C3.26 10.18 3.32 10.15 3.78 10.62C4.19 11.04 4.83 11.12 5.33 10.8C5.53 10.68 5.76 10.61 6 10.61C6.23 10.61 6.46 10.68 6.66 10.8C7.16 11.12 7.8 11.04 8.21 10.62ZM3.05 5.49C3.05 3.84 4.37 2.49 6 2.49C7.62 2.49 8.94 3.84 8.94 5.49C8.94 7.15 7.62 8.49 6 8.49C4.37 8.49 3.05 7.15 3.05 5.49Z" fill="#9FA2B4" fill-opacity="1.000000" fill-rule="nonzero"/>
	</g>
</svg>
